<svg width="100" height="101" viewBox="0 0 100 101" fill="none" xmlns="http://www.w3.org/2000/svg">
<path fill-rule="evenodd" clip-rule="evenodd" d="M2.83521 68.6739C0.979436 63.0239 0 57.0656 0 51.1074C0 47.7173 0.309296 44.3273 0.927887 40.9886C3.91774 23.1139 18.5062 5.5987 36.7546 2.36275C40.8786 0.821827 45.2603 0 49.6935 0C54.7453 0 59.694 1.02728 64.3335 3.08185C64.849 3.23594 65.416 3.4414 65.9831 3.64686C67.8388 4.10914 69.7462 4.57141 71.6535 4.98233C85.6233 11.4029 96.3971 22.2407 99.3354 38.1122C101.243 48.5392 98.4591 59.3257 98.2529 65.3866C97.9436 73.3995 88.974 81.2582 86.1388 86.2405C77.7363 100.725 25.0529 114.234 2.83521 68.6739Z" fill="url(#paint0_linear_6_178)"/>
<path fill-rule="evenodd" clip-rule="evenodd" d="M70.3134 59.6852C64.7461 59.6852 60.2098 64.2052 60.2098 69.7526C60.2098 75.3513 64.7461 79.8713 70.3134 79.8713C75.8808 79.8713 80.4686 75.3513 80.4686 69.7526C80.4686 64.2052 75.8808 59.6852 70.3134 59.6852ZM70.3134 74.8376C67.5298 74.8376 65.2616 72.5776 65.2616 69.7526C65.2616 66.9789 67.5298 64.7189 70.3134 64.7189C73.0971 64.7189 75.3653 66.9789 75.3653 69.7526C75.3653 72.5776 73.0971 74.8376 70.3134 74.8376Z" fill="#FEFEFE"/>
<path fill-rule="evenodd" clip-rule="evenodd" d="M35.7754 59.6852C30.1565 59.6852 25.6202 64.2052 25.6202 69.7526C25.6202 75.3513 30.1565 79.8713 35.7754 79.8713C41.3427 79.8713 45.879 75.3513 45.879 69.7526C45.879 64.2052 41.3427 59.6852 35.7754 59.6852ZM35.7754 74.8376C32.9917 74.8376 30.7236 72.5776 30.7236 69.7526C30.7236 66.9789 32.9917 64.7189 35.7754 64.7189C38.559 64.7189 40.8272 66.9789 40.8272 69.7526C40.8272 72.5776 38.559 74.8376 35.7754 74.8376Z" fill="#FEFEFE"/>
<path fill-rule="evenodd" clip-rule="evenodd" d="M77.1179 30.8185C76.7055 29.9967 75.8292 29.4317 74.9013 29.4317H61.55V34.5167H73.3033L80.2109 48.1282L84.7472 45.8682L77.1179 30.8185Z" fill="#FEFEFE"/>
<path d="M62.7491 67.3385H43.6109V72.3789H62.7491V67.3385Z" fill="#FEFEFE"/>
<path fill-rule="evenodd" clip-rule="evenodd" d="M28.1455 67.3385H19.3826C17.9909 67.3385 16.8569 68.4685 16.8569 69.8553C16.8569 71.2421 17.9909 72.3722 19.3826 72.3722H28.197C29.5888 72.3722 30.7228 71.2421 30.7228 69.8553C30.7228 68.4685 29.5888 67.3385 28.1455 67.3385Z" fill="#FEFEFE"/>
<path fill-rule="evenodd" clip-rule="evenodd" d="M89.4382 51.9292L84.4895 45.56C83.974 44.9437 83.2523 44.5841 82.4791 44.5841H64.076V26.9148C64.076 25.528 62.9419 24.398 61.5501 24.398H19.3828C17.991 24.398 16.8569 25.528 16.8569 26.9148C16.8569 28.3017 17.991 29.4317 19.3828 29.4317H59.0242V47.101C59.0242 48.4878 60.1582 49.6178 61.5501 49.6178H81.2419L84.9019 54.3433V67.3385H77.8912C76.4994 67.3385 75.3653 68.4685 75.3653 69.8553C75.3653 71.2421 76.4994 72.3722 77.8912 72.3722H87.4278C88.8196 72.3722 89.9537 71.2421 89.9537 69.8553V53.4701C89.9537 52.9051 89.7991 52.3915 89.4382 51.9292Z" fill="#FEFEFE"/>
<path fill-rule="evenodd" clip-rule="evenodd" d="M27.9915 54.5488H16.393C14.9496 54.5488 13.8155 55.6788 13.8155 57.0656C13.8155 58.5038 14.9496 59.6338 16.393 59.6338H27.9915C29.3834 59.6338 30.5175 58.5038 30.5175 57.0656C30.5175 55.6788 29.3834 54.5488 27.9915 54.5488Z" fill="#FEFEFE"/>
<path fill-rule="evenodd" clip-rule="evenodd" d="M33.8166 44.6355H12.2174C10.8256 44.6355 9.69153 45.7655 9.69153 47.1523C9.69153 48.5905 10.8256 49.7205 12.2174 49.7205H33.8166C35.2084 49.7205 36.3425 48.5905 36.3425 47.1523C36.3425 45.7655 35.2084 44.6355 33.8166 44.6355Z" fill="#FEFEFE"/>
<path fill-rule="evenodd" clip-rule="evenodd" d="M37.9405 34.7222H16.393C14.9496 34.7222 13.8155 35.8522 13.8155 37.239C13.8155 38.6772 14.9496 39.8073 16.393 39.8073H37.9405C39.3324 39.8073 40.4665 38.6772 40.4665 37.239C40.4665 35.8522 39.3324 34.7222 37.9405 34.7222Z" fill="#FEFEFE"/>
<defs>
<linearGradient id="paint0_linear_6_178" x1="49.9912" y1="99.982" x2="49.9912" y2="0" gradientUnits="userSpaceOnUse">
<stop stop-color="#87C540"/>
<stop offset="1" stop-color="#B0D235"/>
</linearGradient>
</defs>
</svg>
