<svg width="100" height="100" viewBox="0 0 100 100" fill="none" xmlns="http://www.w3.org/2000/svg">
<g clip-path="url(#clip0_6_321)">
<path fill-rule="evenodd" clip-rule="evenodd" d="M2.83505 68.6666C0.979381 63.0178 0 57.0609 0 51.104C0 47.7147 0.309278 44.3255 0.927835 40.9876C3.91753 23.1168 18.5052 5.60561 36.7526 2.3704C40.8763 0.82982 45.2577 0.00817871 49.6907 0.00817871C54.7423 0.00817871 59.6907 1.03523 64.3299 3.08933C64.8454 3.24339 65.4124 3.4488 65.9794 3.65421C67.8351 4.11639 69.7423 4.57856 71.6495 4.98938C85.6186 11.4085 96.3918 22.2439 99.3299 38.1118C101.237 48.5364 98.4536 59.3204 98.2474 65.38C97.9381 73.391 88.9691 81.248 86.134 86.2292C77.732 100.711 25.0515 114.216 2.83505 68.6666Z" fill="url(#paint0_linear_6_321)"/>
<path fill-rule="evenodd" clip-rule="evenodd" d="M50 66.8694C56.3918 66.8694 62.4743 66.4586 67.0103 65.6883C74.0206 64.5585 74.8969 63.0693 74.8969 61.8882C74.8969 60.7071 74.0206 59.2178 67.0103 58.0367C62.4743 57.3178 56.3918 56.907 50 56.907C43.5567 56.907 37.5258 57.3178 32.9897 58.0367C25.9794 59.2178 25.0516 60.7071 25.0516 61.8882C25.0516 63.0693 25.9794 64.5585 32.9897 65.6883C37.5258 66.4586 43.5567 66.8694 50 66.8694ZM34.1753 60.0908C38.5052 59.4233 44.1237 59.1151 50 59.1151C55.8248 59.1151 61.4433 59.4233 65.7732 60.0908C70.4639 60.7584 72.0619 61.5287 72.5774 61.8882C72.0619 62.2477 70.4639 63.0179 65.7732 63.6855C61.4433 64.3531 55.8248 64.6612 50 64.6612C44.1237 64.6612 38.5052 64.3531 34.1753 63.6855C29.5361 63.0179 27.9382 62.2477 27.4227 61.8882C27.9382 61.5287 29.5361 60.7584 34.1753 60.0908Z" fill="#FEFEFE"/>
<path fill-rule="evenodd" clip-rule="evenodd" d="M83.7629 61.8881C83.7629 59.2178 80.2577 57.061 73.3505 55.4177C67.1134 53.9798 58.8144 53.1582 50 53.1582C40.5155 53.1582 31.4949 54.1339 25.2062 55.7772C24.5876 55.9312 24.2784 56.5475 24.433 57.1124C24.5876 57.7286 25.1546 58.0367 25.7732 57.8826C31.8557 56.2907 40.7217 55.3664 50 55.3664C58.6598 55.3664 66.7526 56.1367 72.8351 57.5745C79.7423 59.1665 81.5464 61.0152 81.5464 61.8881C81.5464 62.7611 79.7423 64.6098 72.8351 66.2018C66.7526 67.6396 58.6598 68.4099 50 68.4099C41.3402 68.4099 33.2474 67.6396 27.165 66.2018C20.2577 64.6098 18.4021 62.7611 18.4021 61.8881C18.4021 61.2206 19.433 60.2962 21.1856 59.4746C21.701 59.2178 21.9588 58.6016 21.701 58.0367C21.4433 57.4718 20.7732 57.2664 20.2577 57.5232C17.5773 58.7556 16.2371 60.2449 16.2371 61.8881C16.2371 62.6071 16.4949 63.326 17.0103 63.9422C16.4949 64.6098 16.2371 65.2774 16.2371 65.9964C16.2371 67.4342 17.268 68.7694 19.2268 69.8992V81.4021C19.2268 82.7887 20.3608 83.9184 21.7526 83.9184C23.1443 83.9184 24.2784 82.7887 24.2784 81.4021V71.8505C30 73.5452 38.3505 74.5722 47.4742 74.7263V84.7401C47.4742 86.1266 48.6083 87.2563 49.9485 87.2563H50C51.3918 87.2563 52.5258 86.1266 52.5258 84.7401V74.7263C55.6186 74.6749 58.7113 74.5209 61.5979 74.2641C62.2165 74.2128 62.6804 73.6479 62.6289 73.083C62.5258 72.4668 62.0103 72.0046 61.3918 72.056C58.5567 72.3127 55.567 72.4668 52.5258 72.5181V70.5667C60.3608 70.464 67.6804 69.6424 73.3505 68.3586C74.1753 68.1532 75 67.9478 75.7217 67.7423V69.591C73.1959 70.3613 70 71.0289 66.3402 71.5424C65.7732 71.5938 65.3608 72.1587 65.4124 72.7749C65.5155 73.2884 65.9794 73.6992 66.4949 73.6992C66.5464 73.6992 66.5979 73.6992 66.6495 73.6992C70.1546 73.1857 73.1959 72.5695 75.7217 71.8505V81.4021C75.7217 82.7887 76.8557 83.9184 78.2474 83.9184C79.5876 83.9184 80.7217 82.7887 80.7217 81.4021V69.8992C82.732 68.7694 83.7629 67.4342 83.7629 65.9964C83.7629 65.2774 83.5052 64.6098 82.9897 63.9422C83.5052 63.326 83.7629 62.6071 83.7629 61.8881ZM18.4021 65.9964C18.4021 65.7909 18.5052 65.5855 18.6598 65.3801C18.866 65.5342 19.0722 65.6369 19.2268 65.7396V67.2802C18.7113 66.818 18.4021 66.4072 18.4021 65.9964ZM21.7526 81.7102C21.5979 81.7102 21.4433 81.6075 21.4433 81.4021V66.7666C21.6495 66.8693 21.8557 66.9207 22.0619 67.0234V81.4021C22.0619 81.6075 21.9072 81.7102 21.7526 81.7102ZM24.2784 69.591V67.7423C25 67.9478 25.8247 68.1532 26.6495 68.3586C32.268 69.6424 39.5876 70.464 47.4742 70.5667V72.5181C38.1959 72.3641 29.8454 71.2857 24.2784 69.591ZM50.3608 84.7401C50.3608 84.8941 50.2062 85.0482 50 85.0482H49.9485C49.7938 85.0482 49.6392 84.8941 49.6392 84.7401V70.6181C49.8969 70.6181 50.1031 70.6181 50.3608 70.6181V84.7401ZM78.2474 81.7102C78.0412 81.7102 77.9382 81.6075 77.9382 81.4021V67.0234C78.1443 66.9207 78.3505 66.8693 78.5567 66.7666V81.4021C78.5567 81.6075 78.4021 81.7102 78.2474 81.7102ZM80.7217 67.2802V65.7396C80.9278 65.6369 81.134 65.5342 81.3402 65.3801C81.4433 65.5855 81.5464 65.7909 81.5464 65.9964C81.5464 66.4072 81.2887 66.818 80.7217 67.2802Z" fill="#FEFEFE"/>
<path fill-rule="evenodd" clip-rule="evenodd" d="M35.4639 75.9587C34.8454 75.856 34.2784 76.2668 34.2268 76.8831L33.9691 78.475C33.866 79.0399 34.2784 79.6048 34.8969 79.7075C34.9485 79.7075 35 79.7075 35.0516 79.7075C35.567 79.7075 36.031 79.348 36.134 78.7831L36.3918 77.1912C36.4433 76.575 36.031 76.0614 35.4639 75.9587Z" fill="#FEFEFE"/>
<path fill-rule="evenodd" clip-rule="evenodd" d="M40.2062 76.5237C40 75.9588 39.3299 75.6507 38.7629 75.9075C38.2475 76.1129 37.9382 76.7291 38.1959 77.294L38.7629 78.7832C38.9176 79.2454 39.3299 79.5021 39.7938 79.5021C39.8969 79.5021 40.0516 79.4508 40.2062 79.3994C40.7732 79.194 41.031 78.5778 40.8248 78.0129L40.2062 76.5237Z" fill="#FEFEFE"/>
<path fill-rule="evenodd" clip-rule="evenodd" d="M32.2681 74.9317C31.8041 74.5723 31.0825 74.6236 30.7217 75.1371L29.7423 76.3696C29.3299 76.8318 29.433 77.5507 29.8969 77.9102C30.1031 78.0642 30.3608 78.1156 30.567 78.1156C30.9278 78.1156 31.2371 78.0129 31.4433 77.7048L32.4227 76.4723C32.8351 76.0101 32.732 75.2912 32.2681 74.9317Z" fill="#FEFEFE"/>
<path fill-rule="evenodd" clip-rule="evenodd" d="M64.3299 76.8831C64.2268 76.2668 63.6598 75.856 63.0928 75.9587C62.4742 76.0614 62.0619 76.6263 62.165 77.1912L62.3711 78.7831C62.4742 79.348 62.9382 79.7075 63.4536 79.7075C63.5052 79.7075 63.5567 79.7075 63.6083 79.7075C64.2268 79.6048 64.6392 79.0399 64.5361 78.475L64.3299 76.8831Z" fill="#FEFEFE"/>
<path fill-rule="evenodd" clip-rule="evenodd" d="M59.7423 75.9075C59.1753 75.6507 58.5567 75.9588 58.299 76.5237L57.732 78.0129C57.4742 78.5778 57.7835 79.194 58.3505 79.3994C58.4536 79.4508 58.6082 79.5021 58.7113 79.5021C59.1753 79.5021 59.5876 79.2454 59.7423 78.7832L60.3608 77.294C60.567 76.7291 60.3093 76.1129 59.7423 75.9075Z" fill="#FEFEFE"/>
<path fill-rule="evenodd" clip-rule="evenodd" d="M67.7835 75.1371C67.4227 74.6236 66.7526 74.5723 66.2371 74.9317C65.7732 75.2912 65.7217 76.0101 66.0825 76.4723L67.0619 77.7048C67.3196 78.0129 67.6289 78.1156 67.9382 78.1156C68.1959 78.1156 68.4021 78.0642 68.6083 77.9102C69.0722 77.5507 69.1753 76.8318 68.8145 76.3696L67.7835 75.1371Z" fill="#FEFEFE"/>
<path fill-rule="evenodd" clip-rule="evenodd" d="M25.9794 42.6823H32.5258C33.7629 42.6823 34.7938 41.6552 34.7938 40.3714V38.2146C34.7938 38.1632 34.7938 38.1119 34.7938 38.0605C36.4949 36.7254 38.5052 35.801 40.7217 35.3389V45.404C40.7217 45.9688 41.1856 46.4824 41.8041 46.4824C42.4227 46.4824 42.8866 45.9688 42.8866 45.404V35.0307C43.2474 35.0307 43.5567 34.9794 43.866 34.9794C44.6392 34.9794 45.4124 34.9794 46.134 35.0821C46.1856 35.1334 46.1856 35.1848 46.1856 35.2362C46.3402 35.7497 46.6495 36.1605 47.1134 36.4686C49.5361 37.8038 52.0103 38.6768 54.4846 39.0876C54.5361 39.0876 54.5876 39.0876 54.6392 39.0876C55.2062 39.0876 55.6701 38.7281 55.7217 38.1632C55.8248 37.5984 55.4124 37.0335 54.8454 36.9308C52.6804 36.5713 50.5155 35.801 48.4021 34.6713L52.2165 28.4063C55.4124 30.1009 58.5052 30.3063 61.3918 28.9711C61.8557 28.7144 62.3196 28.509 62.7835 28.2008C63.7629 29.5874 65.3608 30.5117 67.2165 30.5117C67.732 30.5117 68.2474 30.409 68.7629 30.2549L69.2784 30.6658C69.5361 30.8712 69.6392 31.1279 69.6907 31.3847C69.6392 31.7955 69.4846 34.0037 68.7114 36.0064C68.6598 35.9551 68.6083 35.9551 68.5052 35.9551C67.9382 35.9551 67.4227 36.4686 67.4227 37.0848V38.42C65.9794 40.5255 63.4536 42.6309 59.0206 43.7093C59.0206 43.6066 59.0206 43.5553 59.0206 43.4526C59.0206 43.0931 58.9691 42.7336 58.866 42.3742C62.8351 41.3985 65.6186 39.3957 67.1134 36.4686C67.1134 36.3659 67.165 36.3146 67.165 36.2632C67.8866 34.928 67.8351 33.6956 67.7835 33.5929C67.7835 32.9766 67.2681 32.5145 66.6495 32.5658C66.0309 32.5658 65.567 33.0793 65.6186 33.6956C65.6186 33.6956 65.6186 34.4145 65.2577 35.1848C65 35.2875 64.7423 35.4416 64.4846 35.5443C62.8866 36.3146 61.1856 36.7767 59.4846 36.9821C58.866 37.0848 58.4536 37.6497 58.5567 38.2146C58.6083 38.8308 59.1753 39.2417 59.7423 39.1903C60.567 39.0876 61.3402 38.9335 62.165 38.7281C60.9278 39.4984 59.3815 40.0633 57.5773 40.4228C57.4227 40.4741 57.2165 40.5255 57.0619 40.6282C56.701 40.4741 56.3918 40.4228 56.0309 40.4228H53.4021C52.6289 40.4228 51.9072 40.8336 51.4433 41.5012C51.0309 42.1688 50.9794 42.9904 51.2887 43.7093L51.9072 45.0958C52.3196 45.9175 53.1443 46.4824 54.0722 46.4824H56.0309C56.598 46.4824 57.165 46.277 57.6289 46.0202C57.7835 46.0202 57.9382 46.0715 58.1443 46.0715C58.299 46.0715 58.5052 46.0202 58.7114 46.0202C62.732 45.1986 65.5155 43.5553 67.4227 41.7579V47.9716C67.4227 48.5365 67.9382 49.05 68.5052 49.05C69.1237 49.05 69.6392 48.5365 69.6392 47.9716V39.0876C69.9485 38.5741 70.2577 38.0092 70.4639 37.4957C71.701 34.774 71.8557 31.5388 71.8557 31.3847C71.8557 31.3847 71.8557 31.3334 71.8557 31.282C71.8041 30.4604 71.4433 29.6901 70.8248 29.1252C71.3402 28.663 71.7526 28.0981 72.1134 27.4819C72.6289 27.3279 73.0928 27.0711 73.5052 26.6603L74.6907 25.4792C75.3608 24.7602 75.7217 23.8872 75.7217 22.9115C75.6701 21.9872 75.3093 21.0628 74.5876 20.3952L68.7629 14.7978C68.3505 14.387 67.6804 14.387 67.2165 14.7978L66.0309 16.0303C65.0516 17.0573 64.5361 18.3411 64.5361 19.779C64.5361 19.9331 64.5876 20.1385 64.5876 20.3439C63.4536 20.9601 62.5258 22.0385 62.1134 23.271C60.6186 21.8845 59.3815 20.3952 58.4021 18.752C58.5567 18.3411 58.6083 17.9303 58.6083 17.5195L58.4021 14.9519C58.3505 14.1302 57.8866 13.4626 57.2165 13.0518C56.4949 12.6924 55.6701 12.6924 54.9485 13.0518L53.6083 13.7708C52.7835 14.2329 52.3196 15.1059 52.3711 15.9789L52.5258 17.9303C52.5773 18.3411 52.6804 18.7006 52.8351 19.0087C52.6804 19.6763 52.7835 20.2925 53.0928 20.8574C54.433 23.3737 56.1856 25.5819 58.4021 27.5846C56.701 27.8414 54.9485 27.4306 53.0928 26.4035C52.8866 26.3008 52.732 26.2494 52.5258 26.1981L46.9072 19.625C46.134 18.7006 44.8969 18.2898 43.7629 18.5979L33.1959 21.4737C32.4227 21.6791 31.7526 22.1926 31.3402 22.9115C31.1856 23.1683 31.0825 23.4764 30.9794 23.7845C29.1753 24.0926 27.4742 24.9143 26.0825 26.0954C25.3093 26.763 25.0516 27.79 25.4124 28.7657C25.7732 29.7414 26.6495 30.3577 27.6804 30.3577H34.1753C35.4639 30.3577 36.4949 29.3306 36.4949 28.0468V27.0197L43.4536 25.1197L46.6495 28.8684C45.8248 28.8171 44.8969 28.7657 43.9175 28.8171C38.5052 28.8684 33.7114 30.7171 29.9485 34.055C29.3299 34.6199 28.9691 35.3902 28.9175 36.1605C27.2681 36.5713 25.7217 37.3416 24.433 38.42C23.6598 39.0876 23.3505 40.166 23.7114 41.0903C24.0722 42.066 24.9485 42.6823 25.9794 42.6823ZM54.0722 44.2742C54.0206 44.2742 53.9691 44.2742 53.9175 44.2229L53.299 42.785C53.299 42.785 53.2474 42.7336 53.299 42.6823C53.3505 42.6309 53.4021 42.6309 53.4021 42.6309H56.0309C56.4949 42.6309 56.8557 42.9904 56.8557 43.4526C56.8557 43.9147 56.4949 44.2742 56.0309 44.2742H54.0722ZM67.6289 17.5709L68.0413 17.1087L73.0928 21.9872C73.3505 22.2439 73.5052 22.6034 73.5052 22.9629C73.5052 23.3223 73.4021 23.6818 73.0928 23.9386L71.9588 25.171C71.701 25.3765 71.3402 25.3765 71.0825 25.171L67.6804 21.8845C67.0619 21.3196 66.7526 20.5493 66.7526 19.7277C66.7526 18.906 67.0619 18.1357 67.6289 17.5709ZM65.3608 22.4494C65.567 22.8088 65.8248 23.1169 66.134 23.4251L69.5876 26.7116C69.6392 26.8143 69.7423 26.917 69.8454 26.9684C69.2268 27.79 68.2474 28.3035 67.2165 28.3035C65.4124 28.3035 63.9691 26.8657 63.9691 25.0683C63.9691 24.0413 64.4846 23.0656 65.3608 22.4494ZM54.6392 15.7222L56.0309 14.9519C56.0309 14.9519 56.0309 14.9519 56.0825 14.9519H56.134C56.2371 15.0032 56.2371 15.0546 56.2371 15.1059L56.3918 17.6736C56.4433 18.1357 56.0825 18.5466 55.6186 18.5466C55.4124 18.5466 55.1547 18.4952 55 18.3411C54.8454 18.1871 54.7423 17.9817 54.7423 17.7763L54.5876 15.8249C54.5876 15.7735 54.5876 15.7222 54.6392 15.7222ZM55.5155 20.7547C55.567 20.7547 55.567 20.7547 55.567 20.7547C55.6186 20.7547 55.7217 20.7547 55.7732 20.7547C56.1856 20.7034 56.5464 20.6007 56.9072 20.4466C58.1443 22.4494 59.7938 24.298 61.8557 25.89C61.8557 25.9927 61.8557 26.0954 61.9072 26.1467C61.5464 26.4035 61.1856 26.6089 60.8248 26.8143C58.6598 25.017 56.8557 22.9629 55.5155 20.7547ZM34.1753 28.1495H27.6804C27.6289 28.1495 27.5258 28.1495 27.4742 27.9954C27.4227 27.8414 27.4742 27.79 27.5258 27.7387C28.6083 26.8143 29.8969 26.1981 31.2887 25.9413C31.5464 26.4035 31.9588 26.8657 32.4742 27.1224C33.0413 27.4819 33.6598 27.5846 34.2784 27.5333V28.0468C34.2784 28.0981 34.2268 28.1495 34.1753 28.1495ZM43.5567 22.8088L34.2784 25.3251C34.0206 25.3765 33.7629 25.3765 33.5567 25.2224C33.3505 25.1197 33.1959 24.9143 33.1443 24.7089C33.0928 24.4521 33.0928 24.1953 33.2474 23.9899C33.3505 23.7845 33.5567 23.6305 33.7629 23.5791L44.3299 20.7034C44.6392 20.652 45 20.7547 45.2577 21.0115L50.4124 27.1224L49.433 28.7657L44.6907 23.1683C44.3815 22.8602 43.9691 22.7061 43.5567 22.8088ZM31.4433 35.647C34.7423 32.6685 39.0722 31.0766 43.9175 30.9739C45.4639 30.9225 46.8041 31.0766 47.8866 31.2306L46.8557 32.9253C45.8763 32.8226 44.8454 32.7712 43.8144 32.8226C43.5052 32.8226 43.1959 32.8226 42.8866 32.8226C42.8351 32.2577 42.3711 31.8469 41.8041 31.8469C41.1856 31.8469 40.7217 32.3091 40.7217 32.9253V33.1307C37.6289 33.6956 34.8969 34.9794 32.6289 37.0335C32.4742 37.1875 32.2681 37.2389 32.0103 37.2389C31.7526 37.2389 31.5464 37.1362 31.3402 36.9308C31.0309 36.5713 31.0309 36.0064 31.4433 35.647ZM25.8248 40.1146C26.9072 39.1903 28.1959 38.5227 29.5876 38.266C29.6392 38.3173 29.6907 38.3687 29.7423 38.42C30.3093 39.0876 31.134 39.4471 32.0103 39.4471C32.2165 39.4471 32.4227 39.3957 32.6289 39.3957V40.3714C32.6289 40.4228 32.5773 40.4741 32.5258 40.4741H25.9794C25.9794 40.4741 25.8248 40.4741 25.7732 40.3714C25.7217 40.2174 25.8248 40.1146 25.8248 40.1146Z" fill="#FEFEFE"/>
<path fill-rule="evenodd" clip-rule="evenodd" d="M44.3299 39.139V41.6039C44.3299 42.1688 44.7938 42.6823 45.4124 42.6823C46.0309 42.6823 46.4948 42.1688 46.4948 41.6039V39.139C46.4948 38.5227 46.0309 38.0605 45.4124 38.0605C44.7938 38.0605 44.3299 38.5227 44.3299 39.139Z" fill="#FEFEFE"/>
<path fill-rule="evenodd" clip-rule="evenodd" d="M70.4639 41.193V43.812C70.4639 44.4282 70.9278 44.8904 71.5464 44.8904C72.165 44.8904 72.6289 44.4282 72.6289 43.812V41.193C72.6289 40.5768 72.165 40.1146 71.5464 40.1146C70.9278 40.1146 70.4639 40.5768 70.4639 41.193Z" fill="#FEFEFE"/>
<path fill-rule="evenodd" clip-rule="evenodd" d="M28.0928 44.9932V46.6878C28.0928 47.2527 28.6082 47.7662 29.1752 47.7662C29.7938 47.7662 30.3093 47.2527 30.3093 46.6878V44.9932C30.3093 44.3769 29.7938 43.8634 29.1752 43.8634C28.6082 43.8634 28.0928 44.3769 28.0928 44.9932Z" fill="#FEFEFE"/>
<path fill-rule="evenodd" clip-rule="evenodd" d="M31.2371 44.9932V49.4095C31.2371 50.0257 31.701 50.4879 32.3196 50.4879C32.9382 50.4879 33.4021 50.0257 33.4021 49.4095V44.9932C33.4021 44.3769 32.9382 43.8634 32.3196 43.8634C31.701 43.8634 31.2371 44.3769 31.2371 44.9932Z" fill="#FEFEFE"/>
</g>
<defs>
<linearGradient id="paint0_linear_6_321" x1="49.993" y1="99.9943" x2="49.993" y2="0.00817871" gradientUnits="userSpaceOnUse">
<stop stop-color="#87C540"/>
<stop offset="1" stop-color="#B0D235"/>
</linearGradient>
<clipPath id="clip0_6_321">
<rect width="100" height="100" fill="white"/>
</clipPath>
</defs>
</svg>
