<svg width="100" height="100" viewBox="0 0 100 100" fill="none" xmlns="http://www.w3.org/2000/svg">
<g clip-path="url(#clip0_6_279)">
<path fill-rule="evenodd" clip-rule="evenodd" d="M2.85714 68.6826C0.969388 63.0397 0 57.0409 0 51.093C0 47.7377 0.306122 44.3316 0.918367 40.9764C3.92857 23.1325 18.5204 5.59368 36.7347 2.3401C40.8673 0.814982 45.2551 0.00158691 49.6939 0.00158691C54.7449 0.00158691 59.6939 1.01833 64.3367 3.10266C64.8469 3.25517 65.4082 3.45852 65.9694 3.66187C67.8061 4.1194 69.7449 4.57694 71.6327 4.98363C85.6122 11.3891 96.3775 22.2174 99.3367 38.1295C101.224 48.5511 98.4694 59.3286 98.2653 65.3782C97.9082 73.4105 88.9796 81.2394 86.1224 86.2215C77.7041 100.71 25.051 114.233 2.85714 68.6826Z" fill="url(#paint0_linear_6_279)"/>
<path fill-rule="evenodd" clip-rule="evenodd" d="M64.1326 47.026C63.9285 46.9752 63.6224 46.9243 63.3673 46.9243C63.3163 46.111 62.9592 45.3992 62.3979 44.84L56.9898 39.4513V29.4364L65.051 26.4878C66.8367 25.8269 67.8061 23.8443 67.1428 22.0141C67.0918 21.9633 67.0918 21.9124 67.0408 21.8616C66.3265 20.1331 64.3877 19.2689 62.602 19.9298L55.7143 22.4208C55.102 22.675 54.4388 22.7767 53.7245 22.7767H52.2959C51.8877 22.7767 51.5306 22.98 51.3265 23.2851L49.949 25.3185L48.5714 23.2851C48.3673 22.98 48.0102 22.7767 47.602 22.7767H46.1224C45.4592 22.7767 44.7449 22.675 44.1326 22.4208L37.2959 19.9298C35.5102 19.2689 33.5714 20.1331 32.8571 21.8616C32.8061 21.9124 32.8061 21.9633 32.7551 22.065C32.1428 23.8443 33.0612 25.8777 34.8979 26.5386L42.9081 29.4364V38.6379L36.6837 44.84C36.1224 45.3992 35.7653 46.1618 35.7143 46.9752C29.5918 47.7886 14.7959 50.2796 14.7959 56.6343V71.8346C14.7959 72.4955 15.3061 73.0038 15.9694 73.0038C16.5816 73.0038 17.1428 72.4955 17.1428 71.8346V60.6504C19.949 62.8364 25.051 64.514 31.1734 65.6324V80.0194C31.1734 80.6803 31.7347 81.1886 32.3469 81.1886C33.0102 81.1886 33.5204 80.6803 33.5204 80.0194V65.9883C38.9796 66.8017 44.4388 67.1576 49.949 67.1576C55.051 67.1576 60.153 66.8525 65.2041 66.1916V80.0194C65.2041 80.6803 65.7143 81.1886 66.3775 81.1886C66.9898 81.1886 67.551 80.6803 67.551 80.0194V65.8358C74.1836 64.7174 79.7959 62.9889 82.7551 60.6504V71.8346C82.7551 72.4955 83.3163 73.0038 83.9285 73.0038C84.5918 73.0038 85.102 72.4955 85.102 71.8346V56.6343C85.102 50.0763 69.0816 47.5852 64.1326 47.026ZM36.3265 49.3137C36.4285 49.4662 36.5816 49.6187 36.6837 49.7712C36.7347 49.8221 36.7857 49.8729 36.8367 49.8729C38.2143 51.1438 40.3571 51.1438 41.6837 49.7712L42.7551 48.7037L43.7245 48.602C43.8265 48.602 43.8775 48.602 44.0306 48.602C45.051 48.5511 46.0204 48.5511 47.0408 48.5003H47.449C48.3673 48.5003 49.2347 48.5003 50.2041 48.5003C50.3571 48.5003 50.5612 48.5003 50.7143 48.5003C51.5816 48.5003 52.5 48.5003 53.3673 48.5003C53.7755 48.5511 54.1836 48.5511 54.6428 48.5511C55.153 48.602 55.7143 48.602 56.2755 48.6528L57.3979 49.7712C58.8265 51.093 61.0204 51.093 62.3979 49.7712C62.551 49.6187 62.7041 49.4154 62.8571 49.212C63.2143 49.212 63.5204 49.2629 63.8775 49.3137C74.2347 50.6863 78.1122 53.1265 78.1122 54.2957C78.1122 56.3801 68.4183 60.142 49.949 60.142C31.4796 60.142 21.7857 56.3801 21.7857 54.2957C21.7857 53.0756 25.7653 50.6355 36.3265 49.3137ZM45.2551 46.2126L49.5408 41.9423L53.8265 46.2126C50.8163 46.111 47.9081 46.1618 45.2551 46.2126ZM38.3673 46.4668L44.5918 40.2647C45 39.8071 45.2551 39.2479 45.2551 38.6379V29.4364C45.2551 28.4704 44.6428 27.6062 43.7245 27.2504L35.6632 24.3526C35.102 24.0984 34.7959 23.5392 34.949 22.9292C34.949 22.8784 35 22.8784 35 22.8275C35.102 22.5225 35.3061 22.3191 35.6122 22.1666C35.8673 22.0141 36.1734 22.0141 36.4796 22.1158L43.3163 24.6068C44.2347 24.9627 45.153 25.1152 46.1224 25.1152H46.9898L48.9796 28.1146C49.1836 28.4196 49.5408 28.5721 49.949 28.5721C50.3061 28.5721 50.7143 28.4196 50.9183 28.1146L52.9081 25.1152H53.7245C54.6939 25.1152 55.6632 24.9627 56.5306 24.6068L63.4183 22.1158C63.7245 22.0141 64.0306 22.0141 64.3367 22.1666C64.5918 22.2683 64.8469 22.5225 64.949 22.8275C64.949 22.8784 64.949 22.8784 64.949 22.9292C65.102 23.4884 64.7959 24.0984 64.2347 24.3018L56.2245 27.2504C55.2551 27.5554 54.6428 28.4196 54.6428 29.4364V39.4513C54.6428 40.0613 54.8979 40.6205 55.3061 41.0781L60.7143 46.4668C61.1734 46.9243 61.1734 47.6869 60.7143 48.1444C60.2551 48.5511 59.5408 48.5511 59.0816 48.1444L50.7653 39.858C50.5612 39.6546 50.2551 39.5021 49.949 39.5021H49.1326C48.8265 39.5021 48.5204 39.6546 48.3163 39.858L40 48.1444C39.5408 48.602 38.8265 48.602 38.3673 48.1444C38.3673 48.0936 38.3163 48.0936 38.3163 48.0428C37.9081 47.5852 37.9592 46.9243 38.3673 46.4668ZM49.949 64.819C29.5918 64.819 17.1428 60.0912 17.1428 56.6343C17.1428 55.77 17.9592 54.8041 19.5408 53.7874C19.4898 53.9907 19.4898 54.1432 19.4388 54.2957C19.4388 59.6845 34.7959 62.4805 49.949 62.4805C65.102 62.4805 80.4592 59.6845 80.4592 54.2957C80.4081 54.1432 80.4081 53.9907 80.3571 53.8382C81.9387 54.8041 82.7551 55.77 82.7551 56.6343C82.7551 60.0912 70.3061 64.819 49.949 64.819Z" stroke="#FEFEFE" stroke-width="0.755807" stroke-linecap="round" stroke-linejoin="round"/>
<path fill-rule="evenodd" clip-rule="evenodd" d="M64.1326 47.026C63.9285 46.9752 63.6224 46.9243 63.3673 46.9243C63.3163 46.111 62.9592 45.3992 62.3979 44.84L56.9898 39.4513V29.4364L65.051 26.4878C66.8367 25.8269 67.8061 23.8443 67.1428 22.0141C67.0918 21.9633 67.0918 21.9124 67.0408 21.8616C66.3265 20.1331 64.3877 19.2689 62.602 19.9298L55.7143 22.4208C55.102 22.675 54.4388 22.7767 53.7245 22.7767H52.2959C51.8877 22.7767 51.5306 22.98 51.3265 23.2851L49.949 25.3185L48.5714 23.2851C48.3673 22.98 48.0102 22.7767 47.602 22.7767H46.1224C45.4592 22.7767 44.7449 22.675 44.1326 22.4208L37.2959 19.9298C35.5102 19.2689 33.5714 20.1331 32.8571 21.8616C32.8061 21.9124 32.8061 21.9633 32.7551 22.065C32.1428 23.8443 33.0612 25.8777 34.8979 26.5386L42.9081 29.4364V38.6379L36.6837 44.84C36.1224 45.3992 35.7653 46.1618 35.7143 46.9752C29.5918 47.7886 14.7959 50.2796 14.7959 56.6343V71.8346C14.7959 72.4955 15.3061 73.0038 15.9694 73.0038C16.5816 73.0038 17.1428 72.4955 17.1428 71.8346V60.6504C19.949 62.8364 25.051 64.514 31.1734 65.6324V80.0194C31.1734 80.6803 31.7347 81.1886 32.3469 81.1886C33.0102 81.1886 33.5204 80.6803 33.5204 80.0194V65.9883C38.9796 66.8017 44.4388 67.1576 49.949 67.1576C55.051 67.1576 60.153 66.8525 65.2041 66.1916V80.0194C65.2041 80.6803 65.7143 81.1886 66.3775 81.1886C66.9898 81.1886 67.551 80.6803 67.551 80.0194V65.8358C74.1836 64.7174 79.7959 62.9889 82.7551 60.6504V71.8346C82.7551 72.4955 83.3163 73.0038 83.9285 73.0038C84.5918 73.0038 85.102 72.4955 85.102 71.8346V56.6343C85.102 50.0763 69.0816 47.5852 64.1326 47.026ZM36.3265 49.3137C36.4285 49.4662 36.5816 49.6187 36.6837 49.7712C36.7347 49.8221 36.7857 49.8729 36.8367 49.8729C38.2143 51.1438 40.3571 51.1438 41.6837 49.7712L42.7551 48.7036L43.7245 48.602C43.8265 48.602 43.8775 48.602 44.0306 48.602C45.051 48.5511 46.0204 48.5511 47.0408 48.5003H47.449C48.3673 48.5003 49.2347 48.5003 50.2041 48.5003C50.3571 48.5003 50.5612 48.5003 50.7143 48.5003C51.5816 48.5003 52.5 48.5003 53.3673 48.5003C53.7755 48.5511 54.1837 48.5511 54.6428 48.5511C55.153 48.602 55.7143 48.602 56.2755 48.6528L57.3979 49.7712C58.8265 51.093 61.0204 51.093 62.3979 49.7712C62.551 49.6187 62.7041 49.4154 62.8571 49.212C63.2143 49.212 63.5204 49.2629 63.8775 49.3137C74.2347 50.6863 78.1122 53.1265 78.1122 54.2957C78.1122 56.3801 68.4183 60.142 49.949 60.142C31.4796 60.142 21.7857 56.3801 21.7857 54.2957C21.7857 53.0756 25.7653 50.6355 36.3265 49.3137ZM45.2551 46.2126L49.5408 41.9423L53.8265 46.2126C50.8163 46.111 47.9081 46.1618 45.2551 46.2126ZM38.3673 46.4668L44.5918 40.2647C45 39.8071 45.2551 39.2479 45.2551 38.6379V29.4364C45.2551 28.4704 44.6428 27.6062 43.7245 27.2504L35.6632 24.3526C35.102 24.0984 34.7959 23.5392 34.949 22.9292C34.949 22.8784 35 22.8784 35 22.8275C35.102 22.5225 35.3061 22.3191 35.6122 22.1666C35.8673 22.0141 36.1734 22.0141 36.4796 22.1158L43.3163 24.6068C44.2347 24.9627 45.153 25.1152 46.1224 25.1152H46.9898L48.9796 28.1146C49.1837 28.4196 49.5408 28.5721 49.949 28.5721C50.3061 28.5721 50.7143 28.4196 50.9183 28.1146L52.9081 25.1152H53.7245C54.6939 25.1152 55.6632 24.9627 56.5306 24.6068L63.4183 22.1158C63.7245 22.0141 64.0306 22.0141 64.3367 22.1666C64.5918 22.2683 64.8469 22.5225 64.949 22.8275C64.949 22.8784 64.949 22.8784 64.949 22.9292C65.102 23.4884 64.7959 24.0984 64.2347 24.3018L56.2245 27.2504C55.2551 27.5554 54.6428 28.4196 54.6428 29.4364V39.4513C54.6428 40.0613 54.8979 40.6205 55.3061 41.0781L60.7143 46.4668C61.1734 46.9243 61.1734 47.6869 60.7143 48.1444C60.2551 48.5511 59.5408 48.5511 59.0816 48.1444L50.7653 39.858C50.5612 39.6546 50.2551 39.5021 49.949 39.5021H49.1326C48.8265 39.5021 48.5204 39.6546 48.3163 39.858L40 48.1444C39.5408 48.602 38.8265 48.602 38.3673 48.1444C38.3673 48.0936 38.3163 48.0936 38.3163 48.0428C37.9081 47.5852 37.9592 46.9243 38.3673 46.4668ZM49.949 64.819C29.5918 64.819 17.1428 60.0912 17.1428 56.6343C17.1428 55.77 17.9592 54.8041 19.5408 53.7874C19.4898 53.9907 19.4898 54.1432 19.4388 54.2957C19.4388 59.6845 34.7959 62.4805 49.949 62.4805C65.102 62.4805 80.4592 59.6845 80.4592 54.2957C80.4081 54.1432 80.4081 53.9907 80.3571 53.8382C81.9388 54.8041 82.7551 55.77 82.7551 56.6343C82.7551 60.0912 70.3061 64.819 49.949 64.819Z" fill="#FEFEFE"/>
<path fill-rule="evenodd" clip-rule="evenodd" d="M49.9489 20.4382C52.551 20.4382 54.6428 18.3538 54.6428 15.7611C54.6428 13.1684 52.551 11.0841 49.9489 11.0841C47.3469 11.0841 45.2551 13.1684 45.2551 15.7611C45.2551 18.3538 47.3469 20.4382 49.9489 20.4382ZM49.9489 13.4226C51.2245 13.4226 52.2959 14.4902 52.2959 15.7611C52.2959 17.0321 51.2245 18.0996 49.9489 18.0996C48.6734 18.0996 47.602 17.0321 47.602 15.7611C47.602 14.4902 48.6734 13.4226 49.9489 13.4226Z" stroke="#FEFEFE" stroke-width="0.755807" stroke-linecap="round" stroke-linejoin="round"/>
<path fill-rule="evenodd" clip-rule="evenodd" d="M49.9489 20.4382C52.551 20.4382 54.6428 18.3538 54.6428 15.7611C54.6428 13.1684 52.551 11.0841 49.9489 11.0841C47.3469 11.0841 45.2551 13.1684 45.2551 15.7611C45.2551 18.3538 47.3469 20.4382 49.9489 20.4382ZM49.9489 13.4226C51.2245 13.4226 52.2959 14.4902 52.2959 15.7611C52.2959 17.0321 51.2245 18.0996 49.9489 18.0996C48.6734 18.0996 47.602 17.0321 47.602 15.7611C47.602 14.4902 48.6734 13.4226 49.9489 13.4226Z" fill="#FEFEFE"/>
<path fill-rule="evenodd" clip-rule="evenodd" d="M35.8673 36.8078V30.9615C35.8673 30.3006 35.3571 29.7922 34.6939 29.7922C34.0816 29.7922 33.5204 30.3006 33.5204 30.9615V36.8078C33.5204 37.4178 34.0816 37.977 34.6939 37.977C35.3571 37.977 35.8673 37.4178 35.8673 36.8078Z" stroke="#FEFEFE" stroke-width="0.755807" stroke-linecap="round" stroke-linejoin="round"/>
<path fill-rule="evenodd" clip-rule="evenodd" d="M35.8673 36.8078V30.9615C35.8673 30.3006 35.3571 29.7922 34.6939 29.7922C34.0816 29.7922 33.5204 30.3006 33.5204 30.9615V36.8078C33.5204 37.4178 34.0816 37.977 34.6939 37.977C35.3571 37.977 35.8673 37.4178 35.8673 36.8078Z" fill="#FEFEFE"/>
<path fill-rule="evenodd" clip-rule="evenodd" d="M40.5612 33.2999V32.1307C40.5612 31.4698 40.051 30.9614 39.3877 30.9614C38.7244 30.9614 38.2142 31.4698 38.2142 32.1307V33.2999C38.2142 33.91 38.7244 34.4692 39.3877 34.4692C40.051 34.4692 40.5612 33.91 40.5612 33.2999Z" stroke="#FEFEFE" stroke-width="0.755807" stroke-linecap="round" stroke-linejoin="round"/>
<path fill-rule="evenodd" clip-rule="evenodd" d="M40.5612 33.2999V32.1307C40.5612 31.4698 40.051 30.9614 39.3877 30.9614C38.7244 30.9614 38.2142 31.4698 38.2142 32.1307V33.2999C38.2142 33.91 38.7244 34.4692 39.3877 34.4692C40.051 34.4692 40.5612 33.91 40.5612 33.2999Z" fill="#FEFEFE"/>
<path fill-rule="evenodd" clip-rule="evenodd" d="M45.2551 56.6342C45.9183 56.6342 46.4285 56.1259 46.4285 55.465V51.9572C46.4285 51.3472 45.9183 50.788 45.2551 50.788C44.5918 50.788 44.0816 51.3472 44.0816 51.9572V55.465C44.0816 56.1259 44.5918 56.6342 45.2551 56.6342Z" stroke="#FEFEFE" stroke-width="0.755807" stroke-linecap="round" stroke-linejoin="round"/>
<path fill-rule="evenodd" clip-rule="evenodd" d="M45.2551 56.6342C45.9183 56.6342 46.4285 56.1259 46.4285 55.465V51.9572C46.4285 51.3472 45.9183 50.788 45.2551 50.788C44.5918 50.788 44.0816 51.3472 44.0816 51.9572V55.465C44.0816 56.1259 44.5918 56.6342 45.2551 56.6342Z" fill="#FEFEFE"/>
<path fill-rule="evenodd" clip-rule="evenodd" d="M34.6939 56.6343C35.3571 56.6343 35.8673 56.1259 35.8673 55.465V53.1265C35.8673 52.5165 35.3571 51.9573 34.6939 51.9573C34.0816 51.9573 33.5204 52.5165 33.5204 53.1265V55.465C33.5204 56.1259 34.0816 56.6343 34.6939 56.6343Z" stroke="#FEFEFE" stroke-width="0.755807" stroke-linecap="round" stroke-linejoin="round"/>
<path fill-rule="evenodd" clip-rule="evenodd" d="M34.6939 56.6343C35.3571 56.6343 35.8673 56.1259 35.8673 55.465V53.1265C35.8673 52.5165 35.3571 51.9573 34.6939 51.9573C34.0816 51.9573 33.5204 52.5165 33.5204 53.1265V55.465C33.5204 56.1259 34.0816 56.6343 34.6939 56.6343Z" fill="#FEFEFE"/>
<path fill-rule="evenodd" clip-rule="evenodd" d="M65.204 29.7922C64.5408 29.7922 64.0306 30.3006 64.0306 30.9615V36.8078C64.0306 37.4178 64.5408 37.977 65.204 37.977C65.8163 37.977 66.3775 37.4178 66.3775 36.8078V30.9615C66.3775 30.3006 65.8163 29.7922 65.204 29.7922Z" stroke="#FEFEFE" stroke-width="0.755807" stroke-linecap="round" stroke-linejoin="round"/>
<path fill-rule="evenodd" clip-rule="evenodd" d="M65.204 29.7922C64.5408 29.7922 64.0306 30.3006 64.0306 30.9615V36.8078C64.0306 37.4178 64.5408 37.977 65.204 37.977C65.8163 37.977 66.3775 37.4178 66.3775 36.8078V30.9615C66.3775 30.3006 65.8163 29.7922 65.204 29.7922Z" fill="#FEFEFE"/>
<path fill-rule="evenodd" clip-rule="evenodd" d="M59.3367 32.1307V33.2999C59.3367 33.91 59.8469 34.4692 60.5102 34.4692C61.1735 34.4692 61.6837 33.91 61.6837 33.2999V32.1307C61.6837 31.4698 61.1735 30.9614 60.5102 30.9614C59.8469 30.9614 59.3367 31.4698 59.3367 32.1307Z" stroke="#FEFEFE" stroke-width="0.755807" stroke-linecap="round" stroke-linejoin="round"/>
<path fill-rule="evenodd" clip-rule="evenodd" d="M59.3367 32.1307V33.2999C59.3367 33.91 59.8469 34.4692 60.5102 34.4692C61.1735 34.4692 61.6837 33.91 61.6837 33.2999V32.1307C61.6837 31.4698 61.1735 30.9614 60.5102 30.9614C59.8469 30.9614 59.3367 31.4698 59.3367 32.1307Z" fill="#FEFEFE"/>
<path fill-rule="evenodd" clip-rule="evenodd" d="M54.6428 56.6342C55.3061 56.6342 55.8163 56.1259 55.8163 55.465V51.9572C55.8163 51.3472 55.3061 50.788 54.6428 50.788C53.9796 50.788 53.4694 51.3472 53.4694 51.9572V55.465C53.4694 56.1259 53.9796 56.6342 54.6428 56.6342Z" stroke="#FEFEFE" stroke-width="0.755807" stroke-linecap="round" stroke-linejoin="round"/>
<path fill-rule="evenodd" clip-rule="evenodd" d="M54.6428 56.6342C55.3061 56.6342 55.8163 56.1259 55.8163 55.465V51.9572C55.8163 51.3472 55.3061 50.788 54.6428 50.788C53.9796 50.788 53.4694 51.3472 53.4694 51.9572V55.465C53.4694 56.1259 53.9796 56.6342 54.6428 56.6342Z" fill="#FEFEFE"/>
<path fill-rule="evenodd" clip-rule="evenodd" d="M65.204 56.6343C65.8163 56.6343 66.3775 56.1259 66.3775 55.465V53.1265C66.3775 52.5165 65.8163 51.9573 65.204 51.9573C64.5408 51.9573 64.0306 52.5165 64.0306 53.1265V55.465C64.0306 56.1259 64.5408 56.6343 65.204 56.6343Z" stroke="#FEFEFE" stroke-width="0.755807" stroke-linecap="round" stroke-linejoin="round"/>
<path fill-rule="evenodd" clip-rule="evenodd" d="M65.204 56.6343C65.8163 56.6343 66.3775 56.1259 66.3775 55.465V53.1265C66.3775 52.5165 65.8163 51.9573 65.204 51.9573C64.5408 51.9573 64.0306 52.5165 64.0306 53.1265V55.465C64.0306 56.1259 64.5408 56.6343 65.204 56.6343Z" fill="#FEFEFE"/>
</g>
<defs>
<linearGradient id="paint0_linear_6_279" x1="49.9938" y1="99.9887" x2="49.9938" y2="0.00158691" gradientUnits="userSpaceOnUse">
<stop stop-color="#87C540"/>
<stop offset="1" stop-color="#B0D235"/>
</linearGradient>
<clipPath id="clip0_6_279">
<rect width="100" height="100" fill="white"/>
</clipPath>
</defs>
</svg>
