<svg width="100" height="100" viewBox="0 0 100 100" fill="none" xmlns="http://www.w3.org/2000/svg">
<g clip-path="url(#clip0_6_242)">
<path fill-rule="evenodd" clip-rule="evenodd" d="M2.83708 68.6709C0.984441 63.0142 0.00518799 57.0675 0.00518799 51.1076C0.00518799 47.7189 0.30955 44.3302 0.931508 40.981C3.9222 23.1145 18.5051 5.6039 36.7536 2.36023C40.8824 0.817511 45.2625 0 49.6956 0C54.7507 0 59.6999 1.02848 64.3315 3.08544C64.8476 3.23049 65.4166 3.44146 65.9856 3.65243C67.8383 4.11392 69.7439 4.57542 71.6494 4.98418C85.6236 11.4056 96.3954 22.2442 99.3332 38.1065C101.239 48.5364 98.4598 59.3223 98.2481 65.3877C97.9437 73.3913 88.9716 81.25 86.1397 86.2342C77.7367 100.725 25.0555 114.227 2.83708 68.6709Z" fill="url(#paint0_linear_6_242)"/>
<path fill-rule="evenodd" clip-rule="evenodd" d="M77.9219 39.4119H71.7156L69.9688 26.3054C69.7174 24.5385 68.0897 23.3122 66.3297 23.5364L19.2197 29.7468C18.3728 29.8655 17.592 30.3138 17.0759 30.9994C16.5466 31.6719 16.3216 32.5422 16.4407 33.386L20.4107 63.2516C20.6224 64.8602 21.9987 66.0601 23.6263 66.0601C23.7719 66.0601 23.9042 66.0469 24.0498 66.0337L27.1728 65.625V72.7716C27.1728 74.5648 28.6152 76.0021 30.4017 76.0021H77.9219C79.7216 76.0021 81.1641 74.5648 81.1641 72.7716V42.6424C81.1641 40.8623 79.7216 39.4119 77.9219 39.4119ZM69.5321 39.4119H61.1026L69.3866 38.3175L69.5321 39.4119ZM18.5845 33.096C18.5448 32.8059 18.6242 32.529 18.7962 32.3048C18.9683 32.0807 19.2197 31.9224 19.5108 31.8829L66.6076 25.6724C67.2031 25.5933 67.7456 26.0021 67.825 26.5954L68.2485 29.7996L19.008 36.3001L18.5845 33.096ZM27.1728 63.4493L23.7719 63.8977C23.1764 63.9768 22.6338 63.5548 22.5544 62.9747L20.146 44.8312L27.1728 43.9082V63.4493ZM27.3051 41.7194L19.8549 42.6951L19.2859 38.4362L68.5396 31.9356L68.8572 34.4013L69.0954 36.1946L44.667 39.4119H30.4017C28.9725 39.4251 27.7154 40.3481 27.3051 41.7194ZM79.007 72.7716C79.007 73.365 78.5174 73.8528 77.9219 73.8528H30.4017C29.8062 73.8528 29.3298 73.365 29.3298 72.7716V42.6819C29.3298 42.6688 29.3298 42.6556 29.3298 42.6424C29.3298 42.049 29.8194 41.5743 30.4149 41.5743H77.9219C78.5174 41.5743 79.007 42.049 79.007 42.6424V72.7716Z" fill="#FEFEFE"/>
<path fill-rule="evenodd" clip-rule="evenodd" d="M63.8286 55.5775C64.2653 55.261 64.6491 54.8786 64.9667 54.4435C66.7399 56.8301 70.1144 57.3312 72.5096 55.5643C74.9048 53.7842 75.3944 50.4219 73.6212 48.0485C72.6022 46.6772 70.9878 45.8728 69.2807 45.8728C67.5736 45.8728 65.9724 46.6904 64.9667 48.0617C63.1934 45.6619 59.819 45.1608 57.4106 46.9277C55.0154 48.6946 54.4993 52.0569 56.2725 54.4435C58.0457 56.8433 61.4334 57.3444 63.8286 55.5775ZM69.2807 48.0221C71.0804 48.0221 72.5228 49.4725 72.5228 51.2526C72.5228 53.0327 71.0804 54.4831 69.2807 54.4831C67.4942 54.4831 66.0518 53.0327 66.0518 51.2526C66.0518 49.4725 67.4942 48.0221 69.2807 48.0221ZM60.6527 48.0221C62.4392 48.0221 63.8816 49.4725 63.8816 51.2526C63.8816 53.0327 62.4392 54.4831 60.6527 54.4831C58.853 54.4831 57.4106 53.0327 57.4106 51.2526C57.4106 49.4725 58.853 48.0221 60.6527 48.0221Z" fill="#FEFEFE"/>
<path d="M35.8008 46.9541H33.6438V49.1034H35.8008V46.9541Z" fill="#FEFEFE"/>
<path d="M50.9263 46.9541H37.9711V49.1034H50.9263V46.9541Z" fill="#FEFEFE"/>
<path d="M50.9263 51.2526H33.6438V53.4019H50.9263V51.2526Z" fill="#FEFEFE"/>
<path fill-rule="evenodd" clip-rule="evenodd" d="M73.6079 60.9441H34.7289C34.1334 60.9441 33.6438 61.4188 33.6438 62.0121V68.4731C33.6438 69.0665 34.1334 69.5543 34.7289 69.5543H73.6079C74.2034 69.5543 74.6798 69.0665 74.6798 68.4731V62.0121C74.6798 61.4188 74.2034 60.9441 73.6079 60.9441ZM72.5228 67.3919H35.8008V63.0934H72.5228V67.3919Z" fill="#FEFEFE"/>
</g>
<defs>
<linearGradient id="paint0_linear_6_242" x1="50.0025" y1="99.9945" x2="50.0025" y2="0" gradientUnits="userSpaceOnUse">
<stop stop-color="#87C540"/>
<stop offset="1" stop-color="#B0D235"/>
</linearGradient>
<clipPath id="clip0_6_242">
<rect width="100" height="100" fill="white"/>
</clipPath>
</defs>
</svg>
